<svg width="562" height="211" viewBox="0 0 562 211" fill="none" xmlns="http://www.w3.org/2000/svg">
<g clip-path="url(#clip0)">
<g filter="url(#filter0_d)">
<g clip-path="url(#clip1)">
<path fill-rule="evenodd" clip-rule="evenodd" d="M30.539 28.86H135.47V183.14H30.53L30.539 28.86Z" fill="black"/>
<path d="M9.56 23.14H30.539V188.86H9.56V23.14Z" fill="#04FF8E"/>
<path d="M135.461 68.86H156.44V188.86H135.461V68.86Z" fill="#8E2EFF"/>
<path d="M9.56 183.14H156.44V206H9.56V183.14Z" fill="#00C5FF"/>
<path d="M9.56 6H93.494V28.86H9.56V6Z" fill="#FFF152"/>
<path d="M135.461 51.71V28.86H114.473V6H93.494V74.57H156.44V51.71" fill="#FF5B5B"/>
<path d="M135.461 97.43V74.57H156.44" fill="#551C99"/>
<path fill-rule="evenodd" clip-rule="evenodd" d="M93.4941 6V28.86H72.506" fill="#999131"/>
</g>
<g filter="url(#filter1_d)">
<path d="M243.65 52.02C244.31 52.02 244.88 52.26 245.36 52.74C245.84 53.22 246.08 53.79 246.08 54.45V63.99C246.08 73.11 242.96 79.89 236.72 84.33C230.54 88.71 222.35 90.9 212.15 90.9C201.95 90.9 193.73 88.71 187.49 84.33C181.31 79.89 178.22 73.05 178.22 63.81V53.19C178.22 47.07 179.72 42 182.72 37.98C185.72 33.9 189.77 30.9 194.87 28.98C199.97 27.06 205.73 26.1 212.15 26.1C219.83 26.1 226.16 27.36 231.14 29.88C236.12 32.4 239.72 35.25 241.94 38.43C244.22 41.61 245.36 44.19 245.36 46.17C245.36 46.71 245.15 47.19 244.73 47.61C244.37 47.97 243.92 48.15 243.38 48.15H223.04C221.84 48.15 220.97 47.82 220.43 47.16C218.57 44.82 215.81 43.65 212.15 43.65C209.39 43.65 207.08 44.28 205.22 45.54C203.42 46.8 202.52 48.42 202.52 50.4V65.7C202.52 68.1 203.42 69.99 205.22 71.37C207.02 72.69 209.33 73.35 212.15 73.35C215.87 73.35 218.6 72.72 220.34 71.46C222.14 70.14 223.07 68.61 223.13 66.87H217.55C216.89 66.87 216.32 66.63 215.84 66.15C215.36 65.67 215.12 65.1 215.12 64.44V54.45C215.12 53.79 215.36 53.22 215.84 52.74C216.32 52.26 216.89 52.02 217.55 52.02H243.65ZM299.955 71.55H316.245C316.905 71.55 317.475 71.79 317.955 72.27C318.435 72.75 318.675 73.32 318.675 73.98V87.57C318.675 88.23 318.435 88.8 317.955 89.28C317.475 89.76 316.905 90 316.245 90H259.185C258.525 90 257.955 89.76 257.475 89.28C256.995 88.8 256.755 88.23 256.755 87.57V73.98C256.755 73.32 256.995 72.75 257.475 72.27C257.955 71.79 258.525 71.55 259.185 71.55H275.655V45.45H259.185C258.525 45.45 257.955 45.21 257.475 44.73C256.995 44.25 256.755 43.68 256.755 43.02V29.43C256.755 28.77 256.995 28.2 257.475 27.72C257.955 27.24 258.525 27 259.185 27H316.245C316.905 27 317.475 27.24 317.955 27.72C318.435 28.2 318.675 28.77 318.675 29.43V43.02C318.675 43.68 318.435 44.25 317.955 44.73C317.475 45.21 316.905 45.45 316.245 45.45H299.955V71.55ZM373.36 27C379 27 383.92 27.96 388.12 29.88C392.32 31.8 395.53 34.41 397.75 37.71C399.97 41.01 401.08 44.7 401.08 48.78C401.08 55.5 398.98 60.78 394.78 64.62C390.58 68.4 383.44 70.29 373.36 70.29H361.48V87.57C361.48 88.23 361.24 88.8 360.76 89.28C360.28 89.76 359.71 90 359.05 90H339.7C339.04 90 338.47 89.76 337.99 89.28C337.51 88.8 337.27 88.23 337.27 87.57V29.43C337.27 28.77 337.51 28.2 337.99 27.72C338.47 27.24 339.04 27 339.7 27H373.36ZM373 53.64C374.44 53.64 375.58 53.22 376.42 52.38C377.26 51.48 377.68 50.31 377.68 48.87C377.68 47.37 377.26 46.14 376.42 45.18C375.58 44.22 374.44 43.74 373 43.74H361.57V53.64H373ZM470.615 27C471.275 27 471.845 27.24 472.325 27.72C472.805 28.2 473.045 28.77 473.045 29.43V87.57C473.045 88.23 472.805 88.8 472.325 89.28C471.845 89.76 471.275 90 470.615 90H452.075C451.415 90 450.845 89.76 450.365 89.28C449.885 88.8 449.645 88.23 449.645 87.57V68.4H431.645V87.57C431.645 88.23 431.405 88.8 430.925 89.28C430.445 89.76 429.875 90 429.215 90H410.675C410.015 90 409.445 89.79 408.965 89.37C408.485 88.89 408.245 88.29 408.245 87.57V29.43C408.245 28.77 408.485 28.2 408.965 27.72C409.445 27.24 410.015 27 410.675 27H429.215C429.875 27 430.445 27.24 430.925 27.72C431.405 28.2 431.645 28.77 431.645 29.43V47.88H449.645V29.43C449.645 28.77 449.885 28.2 450.365 27.72C450.845 27.24 451.415 27 452.075 27H470.615ZM550.049 27C550.589 27 551.039 27.21 551.399 27.63C551.819 27.99 552.029 28.41 552.029 28.89C552.029 29.25 551.939 29.61 551.759 29.97L529.079 67.5V87.57C529.079 88.23 528.839 88.8 528.359 89.28C527.879 89.76 527.309 90 526.649 90H507.479C506.819 90 506.249 89.76 505.769 89.28C505.289 88.8 505.049 88.23 505.049 87.57V67.5L482.459 29.97C482.279 29.61 482.189 29.28 482.189 28.98C482.189 28.44 482.369 27.99 482.729 27.63C483.149 27.21 483.629 27 484.169 27H503.159C504.839 27 506.069 27.69 506.849 29.07L517.019 46.89L527.459 29.25C528.359 27.75 529.619 27 531.239 27H550.049Z" fill="black"/>
</g>
<g filter="url(#filter2_i)">
<path d="M227 186V126H207V116H267V126H247V186H227ZM287 186V176H277V146H287V136H337V146H347V166H297V176H337V186H287ZM297 156H327V146H297V156ZM357 186V176H367V166H377V156H367V146H357V136H377V146H387V156H397V146H407V136H427V146H417V156H407V166H417V176H427V186H407V176H397V166H387V176H377V186H357ZM467 186V146H447V136H467V116H487V136H507V146H487V186H467Z" fill="#FF5B5B"/>
</g>
<path d="M227 186H226V187H227V186ZM227 126H228V125H227V126ZM207 126H206V127H207V126ZM207 116V115H206V116H207ZM267 116H268V115H267V116ZM267 126V127H268V126H267ZM247 126V125H246V126H247ZM247 186V187H248V186H247ZM228 186V126H226V186H228ZM227 125H207V127H227V125ZM208 126V116H206V126H208ZM207 117H267V115H207V117ZM266 116V126H268V116H266ZM267 125H247V127H267V125ZM246 126V186H248V126H246ZM247 185H227V187H247V185ZM287 186H286V187H287V186ZM287 176H288V175H287V176ZM277 176H276V177H277V176ZM277 146V145H276V146H277ZM287 146V147H288V146H287ZM287 136V135H286V136H287ZM337 136H338V135H337V136ZM337 146H336V147H337V146ZM347 146H348V145H347V146ZM347 166V167H348V166H347ZM297 166V165H296V166H297ZM297 176H296V177H297V176ZM337 176H338V175H337V176ZM337 186V187H338V186H337ZM297 156H296V157H297V156ZM327 156V157H328V156H327ZM327 146H328V145H327V146ZM297 146V145H296V146H297ZM288 186V176H286V186H288ZM287 175H277V177H287V175ZM278 176V146H276V176H278ZM277 147H287V145H277V147ZM288 146V136H286V146H288ZM287 137H337V135H287V137ZM336 136V146H338V136H336ZM337 147H347V145H337V147ZM346 146V166H348V146H346ZM347 165H297V167H347V165ZM296 166V176H298V166H296ZM297 177H337V175H297V177ZM336 176V186H338V176H336ZM337 185H287V187H337V185ZM297 157H327V155H297V157ZM328 156V146H326V156H328ZM327 145H297V147H327V145ZM296 146V156H298V146H296ZM357 186H356V187H357V186ZM357 176V175H356V176H357ZM367 176V177H368V176H367ZM367 166V165H366V166H367ZM377 166V167H378V166H377ZM377 156H378V155H377V156ZM367 156H366V157H367V156ZM367 146H368V145H367V146ZM357 146H356V147H357V146ZM357 136V135H356V136H357ZM377 136H378V135H377V136ZM377 146H376V147H377V146ZM387 146H388V145H387V146ZM387 156H386V157H387V156ZM397 156V157H398V156H397ZM397 146V145H396V146H397ZM407 146V147H408V146H407ZM407 136V135H406V136H407ZM427 136H428V135H427V136ZM427 146V147H428V146H427ZM417 146V145H416V146H417ZM417 156V157H418V156H417ZM407 156V155H406V156H407ZM407 166H406V167H407V166ZM417 166H418V165H417V166ZM417 176H416V177H417V176ZM427 176H428V175H427V176ZM427 186V187H428V186H427ZM407 186H406V187H407V186ZM407 176H408V175H407V176ZM397 176H396V177H397V176ZM397 166H398V165H397V166ZM387 166V165H386V166H387ZM387 176V177H388V176H387ZM377 176V175H376V176H377ZM377 186V187H378V186H377ZM358 186V176H356V186H358ZM357 177H367V175H357V177ZM368 176V166H366V176H368ZM367 167H377V165H367V167ZM378 166V156H376V166H378ZM377 155H367V157H377V155ZM368 156V146H366V156H368ZM367 145H357V147H367V145ZM358 146V136H356V146H358ZM357 137H377V135H357V137ZM376 136V146H378V136H376ZM377 147H387V145H377V147ZM386 146V156H388V146H386ZM387 157H397V155H387V157ZM398 156V146H396V156H398ZM397 147H407V145H397V147ZM408 146V136H406V146H408ZM407 137H427V135H407V137ZM426 136V146H428V136H426ZM427 145H417V147H427V145ZM416 146V156H418V146H416ZM417 155H407V157H417V155ZM406 156V166H408V156H406ZM407 167H417V165H407V167ZM416 166V176H418V166H416ZM417 177H427V175H417V177ZM426 176V186H428V176H426ZM427 185H407V187H427V185ZM408 186V176H406V186H408ZM407 175H397V177H407V175ZM398 176V166H396V176H398ZM397 165H387V167H397V165ZM386 166V176H388V166H386ZM387 175H377V177H387V175ZM376 176V186H378V176H376ZM377 185H357V187H377V185ZM467 186H466V187H467V186ZM467 146H468V145H467V146ZM447 146H446V147H447V146ZM447 136V135H446V136H447ZM467 136V137H468V136H467ZM467 116V115H466V116H467ZM487 116H488V115H487V116ZM487 136H486V137H487V136ZM507 136H508V135H507V136ZM507 146V147H508V146H507ZM487 146V145H486V146H487ZM487 186V187H488V186H487ZM468 186V146H466V186H468ZM467 145H447V147H467V145ZM448 146V136H446V146H448ZM447 137H467V135H447V137ZM468 136V116H466V136H468ZM467 117H487V115H467V117ZM486 116V136H488V116H486ZM487 137H507V135H487V137ZM506 136V146H508V136H506ZM507 145H487V147H507V145ZM486 146V186H488V146H486ZM487 185H467V187H487V185Z" fill="black"/>
</g>
</g>
<defs>
<filter id="filter0_d" x="-11" y="6" width="567.029" height="208" filterUnits="userSpaceOnUse" color-interpolation-filters="sRGB">
<feFlood flood-opacity="0" result="BackgroundImageFix"/>
<feColorMatrix in="SourceAlpha" type="matrix" values="0 0 0 0 0 0 0 0 0 0 0 0 0 0 0 0 0 0 127 0"/>
<feOffset dy="4"/>
<feGaussianBlur stdDeviation="2"/>
<feColorMatrix type="matrix" values="0 0 0 0 0 0 0 0 0 0 0 0 0 0 0 0 0 0 0.25 0"/>
<feBlend mode="normal" in2="BackgroundImageFix" result="effect1_dropShadow"/>
<feBlend mode="normal" in="SourceGraphic" in2="effect1_dropShadow" result="shape"/>
</filter>
<filter id="filter1_d" x="174.22" y="26.1" width="381.809" height="72.8" filterUnits="userSpaceOnUse" color-interpolation-filters="sRGB">
<feFlood flood-opacity="0" result="BackgroundImageFix"/>
<feColorMatrix in="SourceAlpha" type="matrix" values="0 0 0 0 0 0 0 0 0 0 0 0 0 0 0 0 0 0 127 0"/>
<feOffset dy="4"/>
<feGaussianBlur stdDeviation="2"/>
<feColorMatrix type="matrix" values="0 0 0 0 0 0 0 0 0 0 0 0 0 0 0 0 0 0 0.25 0"/>
<feBlend mode="normal" in2="BackgroundImageFix" result="effect1_dropShadow"/>
<feBlend mode="normal" in="SourceGraphic" in2="effect1_dropShadow" result="shape"/>
</filter>
<filter id="filter2_i" x="206" y="115" width="302" height="76" filterUnits="userSpaceOnUse" color-interpolation-filters="sRGB">
<feFlood flood-opacity="0" result="BackgroundImageFix"/>
<feBlend mode="normal" in="SourceGraphic" in2="BackgroundImageFix" result="shape"/>
<feColorMatrix in="SourceAlpha" type="matrix" values="0 0 0 0 0 0 0 0 0 0 0 0 0 0 0 0 0 0 127 0" result="hardAlpha"/>
<feOffset dy="4"/>
<feGaussianBlur stdDeviation="2"/>
<feComposite in2="hardAlpha" operator="arithmetic" k2="-1" k3="1"/>
<feColorMatrix type="matrix" values="0 0 0 0 0 0 0 0 0 0 0 0 0 0 0 0 0 0 0.25 0"/>
<feBlend mode="normal" in2="shape" result="effect1_innerShadow"/>
</filter>
<clipPath id="clip0">
<rect width="562" height="211" fill="white"/>
</clipPath>
<clipPath id="clip1">
<rect width="180" height="200" fill="white" transform="translate(-7 6)"/>
</clipPath>
</defs>
</svg>
